<svg width="97" height="59" viewBox="0 0 97 59" fill="none" xmlns="http://www.w3.org/2000/svg">
<path d="M44.789 56.5322C42.4593 51.1959 39.0005 40.8048 42.3994 29.7099C47.9753 11.5089 69.8506 -1.54446 96.1789 0.14747C99.6735 22.3552 91.0581 43.1585 74.8246 52.4387C63.8914 58.6913 52.5629 57.9636 47.1967 57.218C52.6917 53.0735 58.8575 47.7462 65.0203 41.0054C74.5341 30.5993 80.8856 20.271 85.087 12.0299C79.0499 20.4177 71.7941 29.4763 63.1248 38.7325C56.8691 45.4104 50.6913 51.3217 44.789 56.5322Z" fill="#39B54A"/>
<path d="M37.7699 57.1132C33.6613 58.35 25.7527 59.976 17.9159 56.5622C5.05419 50.9624 -2.64485 33.9622 0.837839 14.9856C17.4068 14.3388 31.9125 22.3672 37.3297 34.9474C40.9801 43.422 39.4798 51.5882 38.4766 55.4213C35.9073 51.0792 32.5324 46.1471 28.1154 41.0953C21.3027 33.3004 14.2805 27.8054 8.59976 24.0532C14.2296 29.1529 20.2486 35.193 26.2917 42.2781C30.6488 47.3928 34.4549 52.3818 37.7699 57.1132Z" fill="#39B54A"/>
</svg>
