<svg width="210" height="106" viewBox="0 0 210 106" fill="none" xmlns="http://www.w3.org/2000/svg">
<path d="M72.771 56.5322C70.4412 51.1959 66.9825 40.8048 70.3813 29.7099C75.9572 11.5089 97.8325 -1.54446 124.161 0.14747C127.655 22.3552 119.04 43.1585 102.807 52.4387C91.8733 58.6913 80.5449 57.9636 75.1786 57.218C80.6736 53.0735 86.8395 47.7462 93.0023 41.0054C102.516 30.5993 108.868 20.271 113.069 12.0299C107.032 20.4177 99.776 29.4763 91.1067 38.7325C84.8511 45.4104 78.6733 51.3217 72.771 56.5322Z" fill="#39B54A"/>
<path d="M65.7518 57.1132C61.6433 58.3499 53.7346 59.976 45.8978 56.5622C33.0361 50.9623 25.3371 33.9621 28.8198 14.9855C45.3887 14.3387 59.8944 22.3672 65.3116 34.9474C68.962 43.422 67.4617 51.5882 66.4585 55.4212C63.8892 51.0791 60.5143 46.147 56.0973 41.0952C49.2847 33.3003 42.2624 27.8053 36.5817 24.0531C42.2115 29.1529 48.2306 35.1929 54.2736 42.2781C58.6307 47.3928 62.4368 52.3817 65.7518 57.1132Z" fill="#39B54A"/>
<path d="M0 87.4681H18.767V82.4372H6.05801V76.3013H16.9313V71.8574H6.05801V66.3114H18.3986V61.3165H0V87.4681Z" fill="#3D3D3D"/>
<path d="M29.745 88.2018C35.1083 88.2018 39.148 84.8958 39.663 80.0476L34.4465 79.3139C34.153 81.8862 32.2814 83.647 29.9307 83.647C27.2116 83.647 25.2292 81.4071 25.1903 78.0651C25.1903 74.7232 27.0289 72.4833 29.5624 72.4833C31.4729 72.4833 33.1259 73.8039 33.5302 76.2654L38.6329 74.9448C37.8274 70.7554 34.153 67.9285 29.4156 67.9285C23.5762 67.9285 19.6084 72.0431 19.6084 78.0651C19.6084 84.0902 23.687 88.2018 29.745 88.2018Z" fill="#3D3D3D"/>
<path d="M50.7502 88.2018C57.0687 88.2018 61.2192 84.198 61.2192 78.0651C61.2192 71.9323 57.0687 67.9285 50.7502 67.9285C44.4705 67.9285 40.3201 71.9323 40.3201 78.0651C40.3201 84.198 44.4705 88.2018 50.7502 88.2018ZM50.7502 83.5392C47.7406 83.5392 45.8301 81.446 45.8301 78.0651C45.8301 74.6873 47.7406 72.5941 50.7502 72.5941C53.7627 72.5941 55.6732 74.6873 55.6732 78.0651C55.6732 81.446 53.7627 83.5392 50.7502 83.5392Z" fill="#3D3D3D"/>
<path d="M64.926 87.4681H70.5078V72.9234H77.2666V68.6622H70.5078V67.084C70.5078 65.2483 71.6098 64.0715 73.2988 64.0715C74.7332 64.0715 76.0897 64.9549 76.8264 66.2395L78.6261 62.7509C77.3025 60.8403 74.8799 59.5557 72.1249 59.5557C67.681 59.5557 64.89 62.3077 64.89 66.6438V68.6622H61.3624V72.9234H64.89L64.926 87.4681Z" fill="#3D3D3D"/>
<path d="M89.0889 88.2018C95.4074 88.2018 99.5579 84.198 99.5579 78.0651C99.5579 71.9323 95.4074 67.9285 89.0889 67.9285C82.8093 67.9285 78.6588 71.9323 78.6588 78.0651C78.6588 84.198 82.8093 88.2018 89.0889 88.2018ZM89.0889 83.5392C86.0794 83.5392 84.1688 81.446 84.1688 78.0651C84.1688 74.6873 86.0794 72.5941 89.0889 72.5941C92.1014 72.5941 94.012 74.6873 94.012 78.0651C94.012 81.446 92.1014 83.5392 89.0889 83.5392Z" fill="#3D3D3D"/>
<path d="M110.829 88.2018C117.148 88.2018 121.298 84.198 121.298 78.0651C121.298 71.9323 117.148 67.9285 110.829 67.9285C104.549 67.9285 100.399 71.9323 100.399 78.0651C100.399 84.198 104.549 88.2018 110.829 88.2018ZM110.829 83.5392C107.819 83.5392 105.909 81.446 105.909 78.0651C105.909 74.6873 107.819 72.5941 110.829 72.5941C113.842 72.5941 115.752 74.6873 115.752 78.0651C115.752 81.446 113.842 83.5392 110.829 83.5392Z" fill="#3D3D3D"/>
<path d="M130.515 88.0191C133.452 88.0191 135.764 86.5877 137.088 83.8686H137.124L137.968 87.4681H142.67V60.2145H137.052V72.2616H137.013C135.692 69.5456 133.413 68.1112 130.515 68.1112C125.592 68.1112 122.139 72.079 122.139 78.0651C122.139 84.0153 125.592 88.0191 130.515 88.0191ZM132.497 83.2817C129.742 83.2817 127.721 81.0417 127.721 78.0651C127.721 75.0915 129.742 72.8516 132.497 72.8516C135.288 72.8516 137.27 75.0915 137.27 78.0651C137.27 81.0028 135.288 83.2817 132.497 83.2817Z" fill="#3D3D3D"/>
<path d="M156.954 88.0191C161.877 88.0191 165.329 84.0153 165.329 78.0651C165.329 72.079 161.877 68.1112 156.954 68.1112C154.052 68.1112 151.776 69.5456 150.452 72.2616H150.416V60.2145H144.799V87.4681H149.5L150.345 83.8686H150.38C151.701 86.5877 153.98 88.0191 156.954 88.0191ZM154.935 83.2817C152.18 83.2817 150.198 81.0028 150.198 78.0651C150.198 75.0915 152.18 72.8516 154.935 72.8516C157.726 72.8516 159.709 75.0915 159.709 78.0651C159.709 81.0417 157.726 83.2817 154.935 83.2817Z" fill="#3D3D3D"/>
<path d="M172.633 88.0191C175.792 88.0191 178.254 86.4769 179.466 84.237H179.502L179.577 84.8958C179.832 86.6236 181.596 88.0191 183.874 88.0191C185.599 88.0191 187.546 87.4322 188.684 86.2942L187.363 83.3176C186.959 83.8327 186.372 84.1621 185.893 84.1621C185.306 84.1621 184.937 83.647 184.937 82.8026V75.5317C184.937 70.8303 181.377 67.9285 175.867 67.9285C170.468 67.9285 166.832 70.7554 166.5 74.6513L171.974 75.4958C172.157 73.6212 173.735 72.0041 176.014 72.0041C178.032 72.0041 179.43 73.0702 179.43 74.6873C179.43 75.4569 178.841 75.9719 177.96 76.0468L174.325 76.487C168.704 77.0739 165.913 79.4247 165.913 82.6558C165.913 85.89 168.704 88.0191 172.633 88.0191ZM174.765 84.1621C172.89 84.1621 171.534 83.2817 171.534 81.997C171.534 80.7842 172.597 79.793 175.72 79.4247L179.32 79.0204V79.793C179.32 82.3264 177.409 84.1621 174.765 84.1621Z" fill="#3D3D3D"/>
<path d="M197.606 95.9157C204.586 95.9157 209.102 91.912 209.102 85.6324V68.6622H204.364L203.52 72.2257H203.484C202.271 69.7642 199.591 68.1501 196.797 68.1501C191.949 68.1501 188.718 71.9682 188.718 77.8076C188.718 83.6111 191.988 87.3932 196.983 87.3932C199.552 87.3932 202.16 86.0726 203.445 83.9434H203.484V85.4467C203.484 89.0103 200.986 91.2502 197.129 91.2502C194.3 91.2502 191.437 90.0763 189.784 88.2407L187.837 92.4271C189.895 94.5203 193.713 95.9157 197.606 95.9157ZM199.001 82.8414C196.21 82.8414 194.3 80.8201 194.3 77.8076C194.3 74.7232 196.21 72.6659 199.001 72.6659C201.831 72.6659 203.703 74.834 203.703 77.8076C203.703 80.7452 201.831 82.8414 199.001 82.8414Z" fill="#3D3D3D"/>
<path d="M153.422 105.438H154.841V100.979H154.859L157.414 105.438H159.187V99.1616H157.758V103.633H157.74L155.186 99.1616H153.422V105.438Z" fill="#3D3D3D"/>
<path d="M162.096 105.438H163.674L164.078 104.204H166.492L166.899 105.438H168.477L166.21 99.1616H164.369L162.096 105.438ZM164.351 103.138L165.276 100.353H165.294L166.219 103.138H164.351Z" fill="#3D3D3D"/>
<path d="M172.91 105.438H174.416V100.449H176.294V99.1616H171.032V100.449H172.91V105.438Z" fill="#3D3D3D"/>
<path d="M182.05 105.66C183.796 105.66 184.871 104.645 184.871 103.025V99.1616H183.365V102.98C183.365 103.815 182.862 104.363 182.05 104.363C181.23 104.363 180.739 103.782 180.739 102.98V99.1616H179.229V103.025C179.229 104.645 180.296 105.66 182.05 105.66Z" fill="#3D3D3D"/>
<path d="M192.849 105.597C193.352 105.597 193.819 105.393 194.128 105.085L193.81 104.372C193.694 104.522 193.526 104.627 193.367 104.627C193.185 104.627 193.068 104.477 193.017 104.291L192.813 103.552C192.708 103.189 192.532 102.944 192.205 102.812V102.803C193.14 102.572 193.694 101.932 193.694 101.102C193.694 99.9043 192.768 99.1616 191.28 99.1616H188.16V105.438H189.666V103.067H190.627C190.99 103.067 191.244 103.348 191.349 103.719L191.624 104.636C191.798 105.226 192.223 105.597 192.849 105.597ZM189.666 102.036V100.273H191.085C191.756 100.273 192.187 100.626 192.187 101.156C192.187 101.692 191.756 102.036 191.085 102.036H189.666Z" fill="#3D3D3D"/>
<path d="M196.596 105.438H198.174L198.578 104.204H200.992L201.399 105.438H202.977L200.71 99.1616H198.868L196.596 105.438ZM198.85 103.138L199.776 100.353H199.794L200.719 103.138H198.85Z" fill="#3D3D3D"/>
<path d="M205.885 105.438H210V104.142H207.392V99.1616H205.885V105.438Z" fill="#3D3D3D"/>
</svg>
